<svg width="2000.0" height="49.8" viewBox="0 0 39179.2 975.0" xmlns="http://www.w3.org/2000/svg">
<defs>
  <linearGradient id="bg" x1="0%" y1="0%" x2="0%" y2="100%">
    <stop offset="0%" stop-color="#141433" />
    <stop offset="100%" stop-color="#2a2a66" />
  </linearGradient>
</defs>
  <rect width="39179.2" height="975.0" fill="url(#bg)" rx="10"/>
  <line x1="0" y1="975.0" x2="39179.2" y2="975.0" stroke="#444499" stroke-width="6"/>
  <g fill="#aaccff" opacity="0.8">
    <rect x="150.0" y="915.0" width="30.0" height="30.0"/>
    <rect x="210.0" y="915.0" width="30.0" height="30.0"/>
    <rect x="270.0" y="915.0" width="30.0" height="30.0"/>
    <rect x="330.0" y="915.0" width="30.0" height="30.0"/>
    <rect x="481.0" y="885.0" width="30.0" height="30.0"/>
    <rect x="390.0" y="915.0" width="30.0" height="30.0"/>
    <rect x="541.0" y="944.5" width="30.0" height="30.0"/>
    <rect x="570.0" y="885.0" width="30.0" height="30.0"/>
    <rect x="660.0" y="855.0" width="30.0" height="30.0"/>
    <rect x="631.0" y="944.5" width="30.0" height="30.0"/>
    <rect x="600.0" y="855.0" width="30.0" height="30.0"/>
    <rect x="690.0" y="915.0" width="30.0" height="30.0"/>
    <rect x="750.0" y="825.0" width="30.0" height="30.0"/>
    <rect x="720.0" y="825.0" width="30.0" height="30.0"/>
    <rect x="810.0" y="885.0" width="30.0" height="30.0"/>
    <rect x="840.0" y="795.0" width="30.0" height="30.0"/>
    <rect x="870.0" y="915.0" width="30.0" height="30.0"/>
    <rect x="840.0" y="885.0" width="30.0" height="30.0"/>
    <rect x="930.0" y="945.0" width="30.0" height="30.0"/>
    <rect x="960.0" y="945.0" width="30.0" height="30.0"/>
    <rect x="900.0" y="915.5" width="30.0" height="30.0"/>
    <rect x="990.0" y="795.0" width="30.0" height="30.0"/>
    <rect x="990.0" y="795.0" width="30.0" height="30.0"/>
    <rect x="1050.0" y="855.0" width="30.0" height="30.0"/>
    <rect x="990.0" y="645.0" width="30.0" height="30.0"/>
    <rect x="990.8" y="915.6" width="30.0" height="30.0"/>
    <rect x="1110.0" y="525.0" width="30.0" height="30.0"/>
    <rect x="1140.0" y="495.0" width="30.0" height="30.0"/>
    <rect x="1140.0" y="795.0" width="30.0" height="30.0"/>
    <rect x="1200.0" y="495.0" width="30.0" height="30.0"/>
    <rect x="1230.0" y="525.0" width="30.0" height="30.0"/>
    <rect x="1230.0" y="825.0" width="30.0" height="30.0"/>
    <rect x="1290.0" y="855.0" width="30.0" height="30.0"/>
    <rect x="1290.0" y="675.0" width="30.0" height="30.0"/>
    <rect x="1500.0" y="825.0" width="30.0" height="30.0"/>
    <rect x="1560.0" y="868.0" width="30.0" height="30.0"/>
    <rect x="1560.0" y="782.0" width="30.0" height="30.0"/>
    <rect x="1500.0" y="825.0" width="30.0" height="30.0"/>
    <rect x="1680.0" y="868.0" width="30.0" height="30.0"/>
    <rect x="1620.0" y="858.0" width="30.0" height="30.0"/>
    <rect x="1680.0" y="782.0" width="30.0" height="30.0"/>
    <rect x="1620.0" y="792.0" width="30.0" height="30.0"/>
    <rect x="1740.0" y="856.0" width="30.0" height="30.0"/>
    <rect x="1740.0" y="794.0" width="30.0" height="30.0"/>
    <rect x="1830.0" y="825.0" width="30.0" height="30.0"/>
    <rect x="1860.0" y="880.0" width="30.0" height="30.0"/>
    <rect x="1800.0" y="868.0" width="30.0" height="30.0"/>
    <rect x="1860.0" y="768.0" width="30.0" height="30.0"/>
    <rect x="1800.0" y="782.0" width="30.0" height="30.0"/>
    <rect x="1920.0" y="868.0" width="30.0" height="30.0"/>
    <rect x="1980.0" y="856.0" width="30.0" height="30.0"/>
    <rect x="1980.0" y="794.0" width="30.0" height="30.0"/>
    <rect x="1920.0" y="782.0" width="30.0" height="30.0"/>
    <rect x="2040.0" y="868.0" width="30.0" height="30.0"/>
    <rect x="2040.0" y="782.0" width="30.0" height="30.0"/>
    <rect x="2100.0" y="858.0" width="30.0" height="30.0"/>
    <rect x="2160.0" y="868.0" width="30.0" height="30.0"/>
    <rect x="2160.0" y="782.0" width="30.0" height="30.0"/>
    <rect x="2100.0" y="792.0" width="30.0" height="30.0"/>
    <rect x="2220.0" y="856.0" width="30.0" height="30.0"/>
    <rect x="2280.0" y="868.0" width="30.0" height="30.0"/>
    <rect x="2280.0" y="782.0" width="30.0" height="30.0"/>
    <rect x="2220.0" y="794.0" width="30.0" height="30.0"/>
    <rect x="2340.0" y="860.0" width="30.0" height="30.0"/>
    <rect x="2340.0" y="790.0" width="30.0" height="30.0"/>
    <rect x="2400.0" y="825.0" width="30.0" height="30.0"/>
    <rect x="2400.0" y="858.0" width="30.0" height="30.0"/>
    <rect x="2400.0" y="792.0" width="30.0" height="30.0"/>
    <rect x="2730.0" y="825.0" width="30.0" height="30.0"/>
    <rect x="2760.0" y="765.0" width="30.0" height="30.0"/>
    <rect x="2760.0" y="855.0" width="30.0" height="30.0"/>
    <rect x="2700.0" y="735.0" width="30.0" height="30.0"/>
    <rect x="2820.0" y="825.0" width="30.0" height="30.0"/>
    <rect x="2880.0" y="915.0" width="30.0" height="30.0"/>
    <rect x="2880.0" y="945.0" width="30.0" height="30.0"/>
    <rect x="2910.0" y="885.0" width="30.0" height="30.0"/>
    <rect x="2940.0" y="885.0" width="30.0" height="30.0"/>
    <rect x="2970.0" y="885.0" width="30.0" height="30.0"/>
    <rect x="2910.0" y="795.0" width="30.0" height="30.0"/>
    <rect x="2970.0" y="795.0" width="30.0" height="30.0"/>
    <rect x="2970.0" y="765.0" width="30.0" height="30.0"/>
    <rect x="2970.0" y="735.0" width="30.0" height="30.0"/>
    <rect x="2940.0" y="795.0" width="30.0" height="30.0"/>
    <rect x="2910.0" y="765.0" width="30.0" height="30.0"/>
    <rect x="2910.0" y="735.0" width="30.0" height="30.0"/>
    <rect x="2970.0" y="705.0" width="30.0" height="30.0"/>
    <rect x="2910.0" y="705.0" width="30.0" height="30.0"/>
    <rect x="2970.0" y="675.0" width="30.0" height="30.0"/>
    <rect x="2910.0" y="675.0" width="30.0" height="30.0"/>
    <rect x="2960.0" y="824.0" width="30.0" height="30.0"/>
    <rect x="3000.0" y="885.0" width="30.0" height="30.0"/>
    <rect x="3030.0" y="885.0" width="30.0" height="30.0"/>
    <rect x="3060.0" y="795.0" width="30.0" height="30.0"/>
    <rect x="3060.0" y="765.0" width="30.0" height="30.0"/>
    <rect x="3060.0" y="735.0" width="30.0" height="30.0"/>
    <rect x="3060.0" y="915.0" width="30.0" height="30.0"/>
    <rect x="3060.0" y="945.0" width="30.0" height="30.0"/>
    <rect x="3060.0" y="885.0" width="30.0" height="30.0"/>
    <rect x="3060.0" y="705.0" width="30.0" height="30.0"/>
    <rect x="3060.0" y="675.0" width="30.0" height="30.0"/>
    <rect x="3030.0" y="856.0" width="30.0" height="30.0"/>
    <rect x="3080.0" y="794.0" width="30.0" height="30.0"/>
    <rect x="3061.0" y="855.0" width="30.0" height="30.0"/>
    <rect x="3090.0" y="765.0" width="30.0" height="30.0"/>
    <rect x="3120.0" y="765.0" width="30.0" height="30.0"/>
    <rect x="3150.0" y="765.0" width="30.0" height="30.0"/>
    <rect x="3150.0" y="855.0" width="30.0" height="30.0"/>
    <rect x="3120.0" y="855.0" width="30.0" height="30.0"/>
    <rect x="3120.0" y="885.0" width="30.0" height="30.0"/>
    <rect x="3120.0" y="915.0" width="30.0" height="30.0"/>
    <rect x="3120.0" y="945.0" width="30.0" height="30.0"/>
    <rect x="3180.0" y="765.0" width="30.0" height="30.0"/>
    <rect x="3180.0" y="855.0" width="30.0" height="30.0"/>
    <rect x="3180.0" y="885.0" width="30.0" height="30.0"/>
    <rect x="3180.0" y="915.0" width="30.0" height="30.0"/>
    <rect x="3180.0" y="945.0" width="30.0" height="30.0"/>
    <rect x="3170.0" y="826.0" width="30.0" height="30.0"/>
    <rect x="3210.0" y="765.0" width="30.0" height="30.0"/>
    <rect x="3240.0" y="765.0" width="30.0" height="30.0"/>
    <rect x="3270.0" y="765.0" width="30.0" height="30.0"/>
    <rect x="3270.0" y="801.0" width="30.0" height="30.0"/>
    <rect x="3330.0" y="885.0" width="30.0" height="30.0"/>
    <rect x="3300.0" y="765.0" width="30.0" height="30.0"/>
    <rect x="3300.0" y="735.0" width="30.0" height="30.0"/>
    <rect x="3330.0" y="915.0" width="30.0" height="30.0"/>
    <rect x="3330.0" y="945.0" width="30.0" height="30.0"/>
    <rect x="3360.0" y="885.0" width="30.0" height="30.0"/>
    <rect x="3360.0" y="915.0" width="30.0" height="30.0"/>
    <rect x="3360.0" y="945.0" width="30.0" height="30.0"/>
    <rect x="3300.0" y="705.0" width="30.0" height="30.0"/>
    <rect x="3300.0" y="675.0" width="30.0" height="30.0"/>
    <rect x="3344.0" y="856.0" width="30.0" height="30.0"/>
    <rect x="3390.0" y="765.0" width="30.0" height="30.0"/>
    <rect x="3390.0" y="735.0" width="30.0" height="30.0"/>
    <rect x="3390.0" y="795.0" width="30.0" height="30.0"/>
    <rect x="3420.0" y="795.0" width="30.0" height="30.0"/>
    <rect x="3450.0" y="765.0" width="30.0" height="30.0"/>
    <rect x="3450.0" y="735.0" width="30.0" height="30.0"/>
    <rect x="3450.0" y="795.0" width="30.0" height="30.0"/>
    <rect x="3420.0" y="831.0" width="30.0" height="30.0"/>
    <rect x="3510.0" y="765.0" width="30.0" height="30.0"/>
    <rect x="3510.0" y="735.0" width="30.0" height="30.0"/>
    <rect x="3510.0" y="825.0" width="30.0" height="30.0"/>
    <rect x="3510.0" y="795.0" width="30.0" height="30.0"/>
    <rect x="3570.0" y="885.0" width="30.0" height="30.0"/>
    <rect x="3570.0" y="915.0" width="30.0" height="30.0"/>
    <rect x="3570.0" y="945.0" width="30.0" height="30.0"/>
    <rect x="3570.0" y="765.0" width="30.0" height="30.0"/>
    <rect x="3570.0" y="735.0" width="30.0" height="30.0"/>
    <rect x="3570.0" y="825.0" width="30.0" height="30.0"/>
    <rect x="3570.0" y="795.0" width="30.0" height="30.0"/>
    <rect x="3540.0" y="825.0" width="30.0" height="30.0"/>
    <rect x="3600.0" y="885.0" width="30.0" height="30.0"/>
    <rect x="3630.0" y="885.0" width="30.0" height="30.0"/>
    <rect x="3630.0" y="945.0" width="30.0" height="30.0"/>
    <rect x="3630.0" y="915.0" width="30.0" height="30.0"/>
    <rect x="3660.0" y="795.0" width="30.0" height="30.0"/>
    <rect x="3660.0" y="765.0" width="30.0" height="30.0"/>
    <rect x="3660.0" y="735.0" width="30.0" height="30.0"/>
    <rect x="3600.0" y="856.0" width="30.0" height="30.0"/>
    <rect x="3660.0" y="705.0" width="30.0" height="30.0"/>
    <rect x="3660.0" y="675.0" width="30.0" height="30.0"/>
    <rect x="3720.0" y="735.0" width="30.0" height="30.0"/>
    <rect x="3720.0" y="765.0" width="30.0" height="30.0"/>
    <rect x="3720.0" y="795.0" width="30.0" height="30.0"/>
    <rect x="3690.0" y="795.0" width="30.0" height="30.0"/>
    <rect x="3750.0" y="885.0" width="30.0" height="30.0"/>
    <rect x="3750.0" y="945.0" width="30.0" height="30.0"/>
    <rect x="3750.0" y="915.0" width="30.0" height="30.0"/>
    <rect x="3720.0" y="885.0" width="30.0" height="30.0"/>
    <rect x="3720.0" y="945.0" width="30.0" height="30.0"/>
    <rect x="3720.0" y="915.0" width="30.0" height="30.0"/>
    <rect x="3694.0" y="824.0" width="30.0" height="30.0"/>
    <rect x="3720.0" y="705.0" width="30.0" height="30.0"/>
    <rect x="3720.0" y="675.0" width="30.0" height="30.0"/>
    <rect x="3840.0" y="765.0" width="30.0" height="30.0"/>
    <rect x="3840.0" y="735.0" width="30.0" height="30.0"/>
    <rect x="3840.0" y="705.0" width="30.0" height="30.0"/>
    <rect x="3840.0" y="675.0" width="30.0" height="30.0"/>
    <rect x="3840.0" y="645.0" width="30.0" height="30.0"/>
    <rect x="3840.0" y="585.0" width="30.0" height="30.0"/>
    <rect x="3840.0" y="615.0" width="30.0" height="30.0"/>
    <rect x="3840.0" y="555.0" width="30.0" height="30.0"/>
    <rect x="3840.0" y="525.0" width="30.0" height="30.0"/>
    <rect x="3840.0" y="495.0" width="30.0" height="30.0"/>
    <rect x="3960.0" y="855.0" width="30.0" height="30.0"/>
    <rect x="3960.0" y="885.0" width="30.0" height="30.0"/>
    <rect x="3960.0" y="915.0" width="30.0" height="30.0"/>
    <rect x="3960.0" y="945.0" width="30.0" height="30.0"/>
    <rect x="3990.0" y="855.0" width="30.0" height="30.0"/>
    <rect x="4020.0" y="795.0" width="30.0" height="30.0"/>
    <rect x="4020.0" y="825.0" width="30.0" height="30.0"/>
    <rect x="4020.0" y="855.0" width="30.0" height="30.0"/>
    <rect x="4050.0" y="795.0" width="30.0" height="30.0"/>
    <rect x="4080.0" y="855.0" width="30.0" height="30.0"/>
    <rect x="4080.0" y="825.0" width="30.0" height="30.0"/>
    <rect x="4080.0" y="795.0" width="30.0" height="30.0"/>
    <rect x="4020.0" y="885.0" width="30.0" height="30.0"/>
    <rect x="4080.0" y="885.0" width="30.0" height="30.0"/>
    <rect x="4020.0" y="915.0" width="30.0" height="30.0"/>
    <rect x="4080.0" y="915.0" width="30.0" height="30.0"/>
    <rect x="4020.0" y="945.0" width="30.0" height="30.0"/>
    <rect x="4080.0" y="945.0" width="30.0" height="30.0"/>
    <rect x="3990.0" y="707.0" width="30.0" height="30.0"/>
    <rect x="4170.0" y="615.0" width="30.0" height="30.0"/>
    <rect x="4110.0" y="585.0" width="30.0" height="30.0"/>
    <rect x="4230.0" y="585.0" width="30.0" height="30.0"/>
    <rect x="4410.0" y="601.0" width="30.0" height="30.0"/>
    <rect x="4500.0" y="495.0" width="30.0" height="30.0"/>
    <rect x="4500.0" y="645.0" width="30.0" height="30.0"/>
    <rect x="4590.0" y="615.0" width="30.0" height="30.0"/>
    <rect x="4680.0" y="555.0" width="30.0" height="30.0"/>
    <rect x="4620.0" y="671.0" width="30.0" height="30.0"/>
    <rect x="4770.0" y="615.0" width="30.0" height="30.0"/>
    <rect x="4830.0" y="555.0" width="30.0" height="30.0"/>
    <rect x="4980.0" y="641.0" width="30.0" height="30.0"/>
    <rect x="5070.0" y="645.0" width="30.0" height="30.0"/>
    <rect x="5010.0" y="525.0" width="30.0" height="30.0"/>
    <rect x="5130.0" y="525.0" width="30.0" height="30.0"/>
    <rect x="5220.0" y="555.0" width="30.0" height="30.0"/>
    <rect x="5220.0" y="499.0" width="30.0" height="30.0"/>
    <rect x="5348.0" y="627.0" width="30.0" height="30.0"/>
    <rect x="5400.0" y="555.0" width="30.0" height="30.0"/>
    <rect x="5460.0" y="645.0" width="30.0" height="30.0"/>
    <rect x="5580.0" y="675.0" width="30.0" height="30.0"/>
    <rect x="5550.0" y="615.0" width="30.0" height="30.0"/>
    <rect x="5694.0" y="657.0" width="30.0" height="30.0"/>
    <rect x="5784.0" y="515.0" width="30.0" height="30.0"/>
    <rect x="5910.0" y="493.0" width="30.0" height="30.0"/>
    <rect x="5910.0" y="525.0" width="30.0" height="30.0"/>
    <rect x="6090.0" y="525.0" width="30.0" height="30.0"/>
    <rect x="6180.0" y="555.0" width="30.0" height="30.0"/>
    <rect x="6240.0" y="585.0" width="30.0" height="30.0"/>
    <rect x="6360.0" y="499.0" width="30.0" height="30.0"/>
    <rect x="6424.0" y="597.0" width="30.0" height="30.0"/>
    <rect x="6662.0" y="585.0" width="30.0" height="30.0"/>
    <rect x="6960.0" y="701.0" width="30.0" height="30.0"/>
    <rect x="6960.0" y="499.0" width="30.0" height="30.0"/>
    <rect x="7050.0" y="645.0" width="30.0" height="30.0"/>
    <rect x="7050.0" y="499.0" width="30.0" height="30.0"/>
    <rect x="7032.0" y="555.0" width="30.0" height="30.0"/>
    <rect x="7110.0" y="701.0" width="30.0" height="30.0"/>
    <rect x="7140.0" y="621.0" width="30.0" height="30.0"/>
    <rect x="7170.0" y="499.0" width="30.0" height="30.0"/>
    <rect x="7260.0" y="701.0" width="30.0" height="30.0"/>
    <rect x="7290.0" y="499.0" width="30.0" height="30.0"/>
    <rect x="7400.0" y="645.0" width="30.0" height="30.0"/>
    <rect x="7432.0" y="585.0" width="30.0" height="30.0"/>
    <rect x="7410.0" y="701.0" width="30.0" height="30.0"/>
    <rect x="7440.0" y="499.0" width="30.0" height="30.0"/>
    <rect x="7504.0" y="555.0" width="30.0" height="30.0"/>
    <rect x="7560.0" y="701.0" width="30.0" height="30.0"/>
    <rect x="7590.0" y="499.0" width="30.0" height="30.0"/>
    <rect x="7654.0" y="555.0" width="30.0" height="30.0"/>
    <rect x="7710.0" y="701.0" width="30.0" height="30.0"/>
    <rect x="7740.0" y="499.0" width="30.0" height="30.0"/>
    <rect x="7834.0" y="615.0" width="30.0" height="30.0"/>
    <rect x="7860.0" y="701.0" width="30.0" height="30.0"/>
    <rect x="7860.0" y="499.0" width="30.0" height="30.0"/>
    <rect x="7924.0" y="585.0" width="30.0" height="30.0"/>
    <rect x="8010.0" y="701.0" width="30.0" height="30.0"/>
    <rect x="8010.0" y="499.0" width="30.0" height="30.0"/>
    <rect x="8008.0" y="555.0" width="30.0" height="30.0"/>
    <rect x="8100.0" y="585.0" width="30.0" height="30.0"/>
    <rect x="8160.0" y="701.0" width="30.0" height="30.0"/>
    <rect x="8160.0" y="499.0" width="30.0" height="30.0"/>
    <rect x="8310.0" y="701.0" width="30.0" height="30.0"/>
    <rect x="8310.0" y="499.0" width="30.0" height="30.0"/>
    <rect x="8430.0" y="499.0" width="30.0" height="30.0"/>
    <rect x="8460.0" y="701.0" width="30.0" height="30.0"/>
    <rect x="8550.0" y="645.0" width="30.0" height="30.0"/>
    <rect x="8580.0" y="701.0" width="30.0" height="30.0"/>
    <rect x="8580.0" y="499.0" width="30.0" height="30.0"/>
    <rect x="8616.0" y="585.0" width="30.0" height="30.0"/>
    <rect x="8730.0" y="701.0" width="30.0" height="30.0"/>
    <rect x="8730.0" y="499.0" width="30.0" height="30.0"/>
    <rect x="8850.0" y="615.0" width="30.0" height="30.0"/>
    <rect x="8880.0" y="701.0" width="30.0" height="30.0"/>
    <rect x="8880.0" y="499.0" width="30.0" height="30.0"/>
    <rect x="8940.0" y="645.0" width="30.0" height="30.0"/>
    <rect x="9030.0" y="701.0" width="30.0" height="30.0"/>
    <rect x="9030.0" y="499.0" width="30.0" height="30.0"/>
    <rect x="9120.0" y="701.0" width="30.0" height="30.0"/>
    <rect x="9090.0" y="499.0" width="30.0" height="30.0"/>
    <rect x="9120.0" y="601.0" width="30.0" height="30.0"/>
    <rect x="9150.0" y="601.0" width="30.0" height="30.0"/>
    <rect x="9180.0" y="601.0" width="30.0" height="30.0"/>
    <rect x="9240.0" y="701.0" width="30.0" height="30.0"/>
    <rect x="9240.0" y="499.0" width="30.0" height="30.0"/>
    <rect x="9210.0" y="601.0" width="30.0" height="30.0"/>
    <rect x="9240.0" y="601.0" width="30.0" height="30.0"/>
    <rect x="9270.0" y="601.0" width="30.0" height="30.0"/>
    <rect x="9300.0" y="601.0" width="30.0" height="30.0"/>
    <rect x="9330.0" y="601.0" width="30.0" height="30.0"/>
    <rect x="9360.0" y="601.0" width="30.0" height="30.0"/>
    <rect x="9390.0" y="701.0" width="30.0" height="30.0"/>
    <rect x="9390.0" y="499.0" width="30.0" height="30.0"/>
    <rect x="9390.0" y="601.0" width="30.0" height="30.0"/>
    <rect x="9420.0" y="601.0" width="30.0" height="30.0"/>
    <rect x="9450.0" y="601.0" width="30.0" height="30.0"/>
    <rect x="9480.0" y="601.0" width="30.0" height="30.0"/>
    <rect x="9540.0" y="701.0" width="30.0" height="30.0"/>
    <rect x="9510.0" y="601.0" width="30.0" height="30.0"/>
    <rect x="9540.0" y="601.0" width="30.0" height="30.0"/>
    <rect x="9570.0" y="601.0" width="30.0" height="30.0"/>
    <rect x="9540.0" y="499.0" width="30.0" height="30.0"/>
    <rect x="9600.0" y="601.0" width="30.0" height="30.0"/>
    <rect x="9630.0" y="601.0" width="30.0" height="30.0"/>
    <rect x="9660.0" y="601.0" width="30.0" height="30.0"/>
    <rect x="9690.0" y="701.0" width="30.0" height="30.0"/>
    <rect x="9690.0" y="601.0" width="30.0" height="30.0"/>
    <rect x="9720.0" y="601.0" width="30.0" height="30.0"/>
    <rect x="9750.0" y="601.0" width="30.0" height="30.0"/>
    <rect x="9690.0" y="499.0" width="30.0" height="30.0"/>
    <rect x="9780.0" y="601.0" width="30.0" height="30.0"/>
    <rect x="9870.0" y="600.0" width="30.0" height="30.0"/>
    <rect x="9810.0" y="601.0" width="30.0" height="30.0"/>
    <rect x="10560.0" y="600.0" width="30.0" height="30.0"/>
    <rect x="12210.0" y="600.0" width="30.0" height="30.0"/>
    <rect x="12990.0" y="705.5" width="30.0" height="30.0"/>
    <rect x="13020.0" y="705.5" width="30.0" height="30.0"/>
    <rect x="13050.0" y="705.5" width="30.0" height="30.0"/>
    <rect x="13080.0" y="705.5" width="30.0" height="30.0"/>
    <rect x="12993.5" y="718.0" width="30.0" height="30.0"/>
    <rect x="12993.5" y="748.0" width="30.0" height="30.0"/>
    <rect x="13006.0" y="751.5" width="30.0" height="30.0"/>
    <rect x="13036.0" y="751.5" width="30.0" height="30.0"/>
    <rect x="13066.0" y="751.5" width="30.0" height="30.0"/>
    <rect x="13110.0" y="705.5" width="30.0" height="30.0"/>
    <rect x="13140.0" y="705.5" width="30.0" height="30.0"/>
    <rect x="13166.5" y="738.0" width="30.0" height="30.0"/>
    <rect x="13096.0" y="751.5" width="30.0" height="30.0"/>
    <rect x="13126.0" y="751.5" width="30.0" height="30.0"/>
    <rect x="13156.0" y="751.5" width="30.0" height="30.0"/>
    <rect x="13170.0" y="705.5" width="30.0" height="30.0"/>
    <rect x="13166.5" y="709.0" width="30.0" height="30.0"/>
    <rect x="13236.0" y="600.0" width="30.0" height="30.0"/>
    <rect x="13227.7" y="681.9" width="30.0" height="30.0"/>
    <rect x="13416.0" y="676.0" width="30.0" height="30.0"/>
    <rect x="13416.0" y="524.0" width="30.0" height="30.0"/>
    <rect x="13456.4" y="482.5" width="30.0" height="30.0"/>
    <rect x="13574.3" y="663.9" width="30.0" height="30.0"/>
    <rect x="13553.0" y="601.0" width="30.0" height="30.0"/>
    <rect x="13551.0" y="600.6" width="30.0" height="30.0"/>
    <rect x="13590.0" y="777.5" width="30.0" height="30.0"/>
    <rect x="13650.0" y="482.5" width="30.0" height="30.0"/>
    <rect x="13599.7" y="588.1" width="30.0" height="30.0"/>
    <rect x="13659.7" y="687.4" width="30.0" height="30.0"/>
    <rect x="13740.0" y="777.5" width="30.0" height="30.0"/>
    <rect x="13726.8" y="591.7" width="30.0" height="30.0"/>
    <rect x="13748.1" y="658.8" width="30.0" height="30.0"/>
    <rect x="13860.0" y="777.5" width="30.0" height="30.0"/>
    <rect x="13860.0" y="482.5" width="30.0" height="30.0"/>
    <rect x="13815.7" y="572.8" width="30.0" height="30.0"/>
    <rect x="13950.0" y="777.5" width="30.0" height="30.0"/>
    <rect x="13891.0" y="650.7" width="30.0" height="30.0"/>
    <rect x="13900.7" y="583.4" width="30.0" height="30.0"/>
    <rect x="13977.4" y="679.1" width="30.0" height="30.0"/>
    <rect x="14070.0" y="777.5" width="30.0" height="30.0"/>
    <rect x="14026.3" y="603.2" width="30.0" height="30.0"/>
    <rect x="14160.0" y="777.5" width="30.0" height="30.0"/>
    <rect x="14151.9" y="585.9" width="30.0" height="30.0"/>
    <rect x="14148.3" y="670.4" width="30.0" height="30.0"/>
    <rect x="14220.0" y="777.5" width="30.0" height="30.0"/>
    <rect x="14220.0" y="482.5" width="30.0" height="30.0"/>
    <rect x="14250.0" y="482.5" width="30.0" height="30.0"/>
    <rect x="14280.0" y="482.5" width="30.0" height="30.0"/>
    <rect x="14243.4" y="677.6" width="30.0" height="30.0"/>
    <rect x="14340.0" y="777.5" width="30.0" height="30.0"/>
    <rect x="14310.0" y="482.5" width="30.0" height="30.0"/>
    <rect x="14362.2" y="659.8" width="30.0" height="30.0"/>
    <rect x="14407.1" y="644.2" width="30.0" height="30.0"/>
    <rect x="14550.0" y="482.5" width="30.0" height="30.0"/>
    <rect x="14496.4" y="565.7" width="30.0" height="30.0"/>
    <rect x="14569.6" y="631.1" width="30.0" height="30.0"/>
    <rect x="14760.0" y="777.5" width="30.0" height="30.0"/>
    <rect x="14700.0" y="777.5" width="30.0" height="30.0"/>
    <rect x="14737.0" y="637.0" width="30.0" height="30.0"/>
    <rect x="14723.0" y="579.0" width="30.0" height="30.0"/>
    <rect x="14820.0" y="482.5" width="30.0" height="30.0"/>
    <rect x="14791.0" y="673.0" width="30.0" height="30.0"/>
    <rect x="14857.8" y="643.8" width="30.0" height="30.0"/>
    <rect x="14843.8" y="595.8" width="30.0" height="30.0"/>
    <rect x="14793.0" y="610.0" width="30.0" height="30.0"/>
    <rect x="14910.0" y="777.5" width="30.0" height="30.0"/>
    <rect x="14970.1" y="644.9" width="30.0" height="30.0"/>
    <rect x="14901.3" y="675.7" width="30.0" height="30.0"/>
    <rect x="14959.1" y="584.9" width="30.0" height="30.0"/>
    <rect x="14911.3" y="613.7" width="30.0" height="30.0"/>
    <rect x="15000.0" y="482.5" width="30.0" height="30.0"/>
    <rect x="15180.0" y="777.5" width="30.0" height="30.0"/>
    <rect x="15169.5" y="540.4" width="30.0" height="30.0"/>
    <rect x="15130.0" y="590.0" width="30.0" height="30.0"/>
    <rect x="15270.0" y="482.5" width="30.0" height="30.0"/>
    <rect x="15230.5" y="644.2" width="30.0" height="30.0"/>
    <rect x="15360.0" y="777.5" width="30.0" height="30.0"/>
    <rect x="15305.0" y="607.0" width="30.0" height="30.0"/>
    <rect x="15420.0" y="482.5" width="30.0" height="30.0"/>
    <rect x="15480.0" y="482.5" width="30.0" height="30.0"/>
    <rect x="15404.8" y="634.5" width="30.0" height="30.0"/>
    <rect x="15577.8" y="641.6" width="30.0" height="30.0"/>
    <rect x="15630.0" y="777.5" width="30.0" height="30.0"/>
    <rect x="15631.0" y="586.0" width="30.0" height="30.0"/>
    <rect x="15870.0" y="777.5" width="30.0" height="30.0"/>
    <rect x="15840.0" y="482.5" width="30.0" height="30.0"/>
    <rect x="15819.2" y="600.1" width="30.0" height="30.0"/>
    <rect x="15848.4" y="676.9" width="30.0" height="30.0"/>
    <rect x="15960.0" y="777.5" width="30.0" height="30.0"/>
    <rect x="15930.0" y="777.5" width="30.0" height="30.0"/>
    <rect x="15900.0" y="777.5" width="30.0" height="30.0"/>
    <rect x="15960.0" y="482.5" width="30.0" height="30.0"/>
    <rect x="16020.0" y="482.5" width="30.0" height="30.0"/>
    <rect x="16004.0" y="601.4" width="30.0" height="30.0"/>
    <rect x="16124.7" y="640.6" width="30.0" height="30.0"/>
    <rect x="16109.0" y="484.5" width="30.0" height="30.0"/>
    <rect x="16230.0" y="482.5" width="30.0" height="30.0"/>
    <rect x="16199.2" y="613.4" width="30.0" height="30.0"/>
    <rect x="16320.0" y="777.5" width="30.0" height="30.0"/>
    <rect x="16320.0" y="482.5" width="30.0" height="30.0"/>
    <rect x="16317.0" y="679.0" width="30.0" height="30.0"/>
    <rect x="16440.0" y="482.5" width="30.0" height="30.0"/>
    <rect x="16415.0" y="693.7" width="30.0" height="30.0"/>
    <rect x="16530.0" y="777.5" width="30.0" height="30.0"/>
    <rect x="16489.5" y="704.5" width="30.0" height="30.0"/>
    <rect x="16590.0" y="482.5" width="30.0" height="30.0"/>
    <rect x="16680.0" y="645.0" width="30.0" height="30.0"/>
    <rect x="16830.0" y="585.0" width="30.0" height="30.0"/>
    <rect x="16819.0" y="695.0" width="30.0" height="30.0"/>
    <rect x="16920.0" y="533.0" width="30.0" height="30.0"/>
    <rect x="16984.0" y="695.0" width="30.0" height="30.0"/>
    <rect x="17006.0" y="597.0" width="30.0" height="30.0"/>
    <rect x="17070.0" y="735.0" width="30.0" height="30.0"/>
    <rect x="17130.0" y="735.0" width="30.0" height="30.0"/>
    <rect x="17100.0" y="675.0" width="30.0" height="30.0"/>
    <rect x="17160.0" y="675.0" width="30.0" height="30.0"/>
    <rect x="17280.0" y="705.0" width="30.0" height="30.0"/>
    <rect x="17430.0" y="675.0" width="30.0" height="30.0"/>
    <rect x="17454.0" y="659.0" width="30.0" height="30.0"/>
    <rect x="17610.0" y="699.0" width="30.0" height="30.0"/>
    <rect x="17610.0" y="653.0" width="30.0" height="30.0"/>
    <rect x="17700.0" y="653.0" width="30.0" height="30.0"/>
    <rect x="17700.0" y="699.0" width="30.0" height="30.0"/>
    <rect x="17880.0" y="645.0" width="30.0" height="30.0"/>
    <rect x="17850.0" y="615.0" width="30.0" height="30.0"/>
    <rect x="17880.0" y="615.0" width="30.0" height="30.0"/>
    <rect x="17970.0" y="753.5" width="30.0" height="30.0"/>
    <rect x="17940.0" y="753.5" width="30.0" height="30.0"/>
    <rect x="17970.0" y="533.0" width="30.0" height="30.0"/>
    <rect x="17940.0" y="533.0" width="30.0" height="30.0"/>
    <rect x="17910.0" y="615.0" width="30.0" height="30.0"/>
    <rect x="18000.0" y="753.5" width="30.0" height="30.0"/>
    <rect x="18030.0" y="753.5" width="30.0" height="30.0"/>
    <rect x="18060.0" y="753.5" width="30.0" height="30.0"/>
    <rect x="18000.0" y="533.0" width="30.0" height="30.0"/>
    <rect x="18030.0" y="533.0" width="30.0" height="30.0"/>
    <rect x="18060.0" y="533.0" width="30.0" height="30.0"/>
    <rect x="18090.0" y="753.5" width="30.0" height="30.0"/>
    <rect x="18120.0" y="753.5" width="30.0" height="30.0"/>
    <rect x="18150.0" y="753.5" width="30.0" height="30.0"/>
    <rect x="18090.0" y="533.0" width="30.0" height="30.0"/>
    <rect x="18120.0" y="533.0" width="30.0" height="30.0"/>
    <rect x="18150.0" y="531.0" width="30.0" height="30.0"/>
    <rect x="18180.0" y="637.0" width="30.0" height="30.0"/>
    <rect x="18180.0" y="681.0" width="30.0" height="30.0"/>
    <rect x="18270.0" y="637.0" width="30.0" height="30.0"/>
    <rect x="18240.0" y="641.0" width="30.0" height="30.0"/>
    <rect x="18210.0" y="637.0" width="30.0" height="30.0"/>
    <rect x="18240.0" y="637.0" width="30.0" height="30.0"/>
    <rect x="18240.0" y="679.0" width="30.0" height="30.0"/>
    <rect x="18210.0" y="681.0" width="30.0" height="30.0"/>
    <rect x="18270.0" y="681.0" width="30.0" height="30.0"/>
    <rect x="18240.0" y="681.0" width="30.0" height="30.0"/>
    <rect x="18300.0" y="637.0" width="30.0" height="30.0"/>
    <rect x="18300.0" y="681.0" width="30.0" height="30.0"/>
    <rect x="18450.0" y="645.0" width="30.0" height="30.0"/>
    <rect x="18420.0" y="645.0" width="30.0" height="30.0"/>
    <rect x="18480.0" y="645.0" width="30.0" height="30.0"/>
    <rect x="18540.0" y="676.5" width="30.0" height="30.0"/>
    <rect x="18570.0" y="676.0" width="30.0" height="30.0"/>
    <rect x="18600.0" y="676.5" width="30.0" height="30.0"/>
    <rect x="18660.0" y="644.5" width="30.0" height="30.0"/>
    <rect x="18720.0" y="645.0" width="30.0" height="30.0"/>
    <rect x="18690.0" y="645.0" width="30.0" height="30.0"/>
    <rect x="19230.0" y="645.0" width="30.0" height="30.0"/>
    <rect x="19230.0" y="691.0" width="30.0" height="30.0"/>
    <rect x="19320.0" y="645.0" width="30.0" height="30.0"/>
    <rect x="19320.0" y="691.0" width="30.0" height="30.0"/>
    <rect x="19470.0" y="761.0" width="30.0" height="30.0"/>
    <rect x="19530.0" y="675.0" width="30.0" height="30.0"/>
    <rect x="19650.8" y="811.2" width="30.0" height="30.0"/>
    <rect x="19620.0" y="721.0" width="30.0" height="30.0"/>
    <rect x="19800.0" y="705.0" width="30.0" height="30.0"/>
    <rect x="19890.0" y="751.0" width="30.0" height="30.0"/>
    <rect x="20100.0" y="675.0" width="30.0" height="30.0"/>
    <rect x="20190.0" y="722.0" width="30.0" height="30.0"/>
    <rect x="20310.0" y="615.0" width="30.0" height="30.0"/>
    <rect x="20482.0" y="645.0" width="30.0" height="30.0"/>
    <rect x="20400.0" y="615.0" width="30.0" height="30.0"/>
    <rect x="20520.0" y="599.0" width="30.0" height="30.0"/>
    <rect x="20610.0" y="691.0" width="30.0" height="30.0"/>
    <rect x="20610.0" y="599.0" width="30.0" height="30.0"/>
    <rect x="20594.0" y="599.0" width="30.0" height="30.0"/>
    <rect x="20594.0" y="689.0" width="30.0" height="30.0"/>
    <rect x="20760.0" y="665.0" width="30.0" height="30.0"/>
    <rect x="20700.0" y="665.0" width="30.0" height="30.0"/>
    <rect x="20700.0" y="649.0" width="30.0" height="30.0"/>
    <rect x="20760.0" y="649.0" width="30.0" height="30.0"/>
    <rect x="20704.0" y="575.0" width="30.0" height="30.0"/>
    <rect x="20756.0" y="575.0" width="30.0" height="30.0"/>
    <rect x="20704.0" y="455.0" width="30.0" height="30.0"/>
    <rect x="20756.0" y="455.0" width="30.0" height="30.0"/>
    <rect x="20730.0" y="695.0" width="30.0" height="30.0"/>
    <rect x="20880.0" y="645.0" width="30.0" height="30.0"/>
    <rect x="21014.0" y="705.0" width="30.0" height="30.0"/>
    <rect x="21090.0" y="615.0" width="30.0" height="30.0"/>
    <rect x="21224.0" y="705.0" width="30.0" height="30.0"/>
    <rect x="21330.0" y="615.0" width="30.0" height="30.0"/>
    <rect x="21600.0" y="791.0" width="30.0" height="30.0"/>
    <rect x="21780.0" y="645.0" width="30.0" height="30.0"/>
    <rect x="21720.0" y="589.0" width="30.0" height="30.0"/>
    <rect x="21870.0" y="589.0" width="30.0" height="30.0"/>
    <rect x="22020.0" y="791.0" width="30.0" height="30.0"/>
    <rect x="22110.0" y="757.0" width="30.0" height="30.0"/>
    <rect x="22200.0" y="791.0" width="30.0" height="30.0"/>
    <rect x="22239.3" y="589.8" width="30.0" height="30.0"/>
    <rect x="22500.0" y="791.0" width="30.0" height="30.0"/>
    <rect x="22500.0" y="589.0" width="30.0" height="30.0"/>
    <rect x="22770.0" y="655.0" width="30.0" height="30.0"/>
    <rect x="22710.0" y="589.0" width="30.0" height="30.0"/>
    <rect x="22860.0" y="705.0" width="30.0" height="30.0"/>
    <rect x="23010.0" y="589.0" width="30.0" height="30.0"/>
    <rect x="23010.0" y="791.0" width="30.0" height="30.0"/>
    <rect x="23250.0" y="791.0" width="30.0" height="30.0"/>
    <rect x="23460.0" y="589.0" width="30.0" height="30.0"/>
    <rect x="23550.0" y="791.0" width="30.0" height="30.0"/>
    <rect x="23640.0" y="589.0" width="30.0" height="30.0"/>
    <rect x="25560.0" y="735.0" width="30.0" height="30.0"/>
    <rect x="26070.0" y="791.0" width="30.0" height="30.0"/>
    <rect x="26250.0" y="589.0" width="30.0" height="30.0"/>
    <rect x="26430.0" y="791.0" width="30.0" height="30.0"/>
    <rect x="26520.0" y="721.0" width="30.0" height="30.0"/>
    <rect x="28020.0" y="837.5" width="30.0" height="30.0"/>
    <rect x="28050.0" y="837.5" width="30.0" height="30.0"/>
    <rect x="28080.0" y="837.5" width="30.0" height="30.0"/>
    <rect x="28020.0" y="542.5" width="30.0" height="30.0"/>
    <rect x="28080.0" y="542.5" width="30.0" height="30.0"/>
    <rect x="28050.0" y="542.5" width="30.0" height="30.0"/>
    <rect x="28080.0" y="821.0" width="30.0" height="30.0"/>
    <rect x="28110.0" y="837.5" width="30.0" height="30.0"/>
    <rect x="28140.0" y="837.5" width="30.0" height="30.0"/>
    <rect x="28170.0" y="837.5" width="30.0" height="30.0"/>
    <rect x="28110.0" y="542.5" width="30.0" height="30.0"/>
    <rect x="28140.0" y="542.5" width="30.0" height="30.0"/>
    <rect x="28170.0" y="542.5" width="30.0" height="30.0"/>
    <rect x="28200.0" y="837.5" width="30.0" height="30.0"/>
    <rect x="28230.0" y="837.5" width="30.0" height="30.0"/>
    <rect x="28260.0" y="837.5" width="30.0" height="30.0"/>
    <rect x="28200.0" y="542.5" width="30.0" height="30.0"/>
    <rect x="28230.0" y="542.5" width="30.0" height="30.0"/>
    <rect x="28260.0" y="542.5" width="30.0" height="30.0"/>
    <rect x="28188.0" y="559.0" width="30.0" height="30.0"/>
    <rect x="28290.0" y="837.5" width="30.0" height="30.0"/>
    <rect x="28290.0" y="542.5" width="30.0" height="30.0"/>
    <rect x="28350.0" y="837.5" width="30.0" height="30.0"/>
    <rect x="28350.0" y="542.5" width="30.0" height="30.0"/>
    <rect x="28380.0" y="837.5" width="30.0" height="30.0"/>
    <rect x="28380.0" y="542.5" width="30.0" height="30.0"/>
    <rect x="28320.0" y="837.5" width="30.0" height="30.0"/>
    <rect x="28320.0" y="542.5" width="30.0" height="30.0"/>
    <rect x="28410.0" y="837.5" width="30.0" height="30.0"/>
    <rect x="28440.0" y="837.5" width="30.0" height="30.0"/>
    <rect x="28410.0" y="542.5" width="30.0" height="30.0"/>
    <rect x="28440.0" y="542.5" width="30.0" height="30.0"/>
    <rect x="28470.0" y="837.5" width="30.0" height="30.0"/>
    <rect x="28470.0" y="542.5" width="30.0" height="30.0"/>
    <rect x="28470.0" y="821.0" width="30.0" height="30.0"/>
    <rect x="28500.0" y="837.5" width="30.0" height="30.0"/>
    <rect x="28530.0" y="837.5" width="30.0" height="30.0"/>
    <rect x="28500.0" y="542.5" width="30.0" height="30.0"/>
    <rect x="28530.0" y="542.5" width="30.0" height="30.0"/>
    <rect x="28560.0" y="542.5" width="30.0" height="30.0"/>
    <rect x="28590.0" y="542.5" width="30.0" height="30.0"/>
    <rect x="28620.0" y="542.5" width="30.0" height="30.0"/>
    <rect x="28650.0" y="542.5" width="30.0" height="30.0"/>
    <rect x="28680.0" y="542.5" width="30.0" height="30.0"/>
    <rect x="28710.0" y="542.5" width="30.0" height="30.0"/>
    <rect x="28860.0" y="837.5" width="30.0" height="30.0"/>
    <rect x="28800.0" y="837.5" width="30.0" height="30.0"/>
    <rect x="28830.0" y="837.5" width="30.0" height="30.0"/>
    <rect x="28890.0" y="837.5" width="30.0" height="30.0"/>
    <rect x="28920.0" y="837.5" width="30.0" height="30.0"/>
    <rect x="28950.0" y="837.5" width="30.0" height="30.0"/>
    <rect x="28950.0" y="821.0" width="30.0" height="30.0"/>
    <rect x="28980.0" y="837.5" width="30.0" height="30.0"/>
    <rect x="28980.0" y="705.0" width="30.0" height="30.0"/>
    <rect x="29070.0" y="765.0" width="30.0" height="30.0"/>
    <rect x="29250.0" y="837.5" width="30.0" height="30.0"/>
    <rect x="29280.0" y="795.0" width="30.0" height="30.0"/>
    <rect x="29190.0" y="765.0" width="30.0" height="30.0"/>
    <rect x="29400.0" y="795.0" width="30.0" height="30.0"/>
    <rect x="29732.0" y="835.0" width="30.0" height="30.0"/>
    <rect x="30270.0" y="897.5" width="30.0" height="30.0"/>
    <rect x="30240.0" y="897.5" width="30.0" height="30.0"/>
    <rect x="30270.0" y="812.5" width="30.0" height="30.0"/>
    <rect x="30240.0" y="812.5" width="30.0" height="30.0"/>
    <rect x="30300.0" y="812.5" width="30.0" height="30.0"/>
    <rect x="30330.0" y="897.5" width="30.0" height="30.0"/>
    <rect x="30300.0" y="897.5" width="30.0" height="30.0"/>
    <rect x="30330.0" y="812.5" width="30.0" height="30.0"/>
    <rect x="30480.0" y="957.5" width="30.0" height="30.0"/>
    <rect x="30480.0" y="872.5" width="30.0" height="30.0"/>
    <rect x="30690.0" y="927.5" width="30.0" height="30.0"/>
    <rect x="30720.0" y="927.5" width="30.0" height="30.0"/>
    <rect x="31050.0" y="795.0" width="30.0" height="30.0"/>
    <rect x="31230.0" y="915.0" width="30.0" height="30.0"/>
    <rect x="31500.0" y="941.0" width="30.0" height="30.0"/>
    <rect x="32188.0" y="881.0" width="30.0" height="30.0"/>
    <rect x="32640.0" y="855.0" width="30.0" height="30.0"/>
    <rect x="32820.0" y="765.0" width="30.0" height="30.0"/>
    <rect x="32880.0" y="765.0" width="30.0" height="30.0"/>
    <rect x="32850.0" y="765.0" width="30.0" height="30.0"/>
    <rect x="32820.0" y="735.0" width="30.0" height="30.0"/>
    <rect x="32820.0" y="705.0" width="30.0" height="30.0"/>
    <rect x="32820.0" y="675.0" width="30.0" height="30.0"/>
    <rect x="32880.0" y="705.0" width="30.0" height="30.0"/>
    <rect x="32880.0" y="735.0" width="30.0" height="30.0"/>
    <rect x="32850.0" y="735.0" width="30.0" height="30.0"/>
    <rect x="32850.0" y="675.0" width="30.0" height="30.0"/>
    <rect x="32850.0" y="705.0" width="30.0" height="30.0"/>
    <rect x="32880.0" y="675.0" width="30.0" height="30.0"/>
    <rect x="32850.0" y="795.0" width="30.0" height="30.0"/>
    <rect x="32880.0" y="795.0" width="30.0" height="30.0"/>
    <rect x="32880.0" y="915.0" width="30.0" height="30.0"/>
    <rect x="32880.0" y="945.0" width="30.0" height="30.0"/>
    <rect x="32850.0" y="915.0" width="30.0" height="30.0"/>
    <rect x="32850.0" y="945.0" width="30.0" height="30.0"/>
    <rect x="32850.0" y="885.0" width="30.0" height="30.0"/>
    <rect x="32820.0" y="915.0" width="30.0" height="30.0"/>
    <rect x="32820.0" y="945.0" width="30.0" height="30.0"/>
    <rect x="32790.0" y="837.0" width="30.0" height="30.0"/>
    <rect x="32910.0" y="765.0" width="30.0" height="30.0"/>
    <rect x="32910.0" y="735.0" width="30.0" height="30.0"/>
    <rect x="32910.0" y="705.0" width="30.0" height="30.0"/>
    <rect x="32910.0" y="675.0" width="30.0" height="30.0"/>
    <rect x="32978.0" y="861.0" width="30.0" height="30.0"/>
    <rect x="32978.0" y="921.0" width="30.0" height="30.0"/>
    <rect x="32978.0" y="891.0" width="30.0" height="30.0"/>
    <rect x="32978.0" y="951.0" width="30.0" height="30.0"/>
    <rect x="32978.0" y="831.0" width="30.0" height="30.0"/>
    <rect x="32948.0" y="861.0" width="30.0" height="30.0"/>
    <rect x="32948.0" y="891.0" width="30.0" height="30.0"/>
    <rect x="32948.0" y="921.0" width="30.0" height="30.0"/>
    <rect x="32948.0" y="951.0" width="30.0" height="30.0"/>
    <rect x="33008.0" y="861.0" width="30.0" height="30.0"/>
    <rect x="33008.0" y="891.0" width="30.0" height="30.0"/>
    <rect x="33008.0" y="951.0" width="30.0" height="30.0"/>
    <rect x="33008.0" y="921.0" width="30.0" height="30.0"/>
    <rect x="33008.0" y="831.0" width="30.0" height="30.0"/>
    <rect x="33038.0" y="861.0" width="30.0" height="30.0"/>
    <rect x="33038.0" y="891.0" width="30.0" height="30.0"/>
    <rect x="33038.0" y="921.0" width="30.0" height="30.0"/>
    <rect x="33038.0" y="951.0" width="30.0" height="30.0"/>
    <rect x="33066.0" y="773.0" width="30.0" height="30.0"/>
    <rect x="33150.0" y="675.0" width="30.0" height="30.0"/>
    <rect x="33180.0" y="675.0" width="30.0" height="30.0"/>
    <rect x="33180.0" y="705.0" width="30.0" height="30.0"/>
    <rect x="33248.0" y="861.0" width="30.0" height="30.0"/>
    <rect x="33248.0" y="831.0" width="30.0" height="30.0"/>
    <rect x="33218.0" y="861.0" width="30.0" height="30.0"/>
    <rect x="33278.0" y="861.0" width="30.0" height="30.0"/>
    <rect x="33278.0" y="831.0" width="30.0" height="30.0"/>
    <rect x="33278.0" y="891.0" width="30.0" height="30.0"/>
    <rect x="33278.0" y="951.0" width="30.0" height="30.0"/>
    <rect x="33278.0" y="921.0" width="30.0" height="30.0"/>
    <rect x="33248.0" y="921.0" width="30.0" height="30.0"/>
    <rect x="33248.0" y="891.0" width="30.0" height="30.0"/>
    <rect x="33248.0" y="951.0" width="30.0" height="30.0"/>
    <rect x="33218.0" y="891.0" width="30.0" height="30.0"/>
    <rect x="33218.0" y="921.0" width="30.0" height="30.0"/>
    <rect x="33218.0" y="951.0" width="30.0" height="30.0"/>
    <rect x="33210.0" y="675.0" width="30.0" height="30.0"/>
    <rect x="33210.0" y="705.0" width="30.0" height="30.0"/>
    <rect x="33212.0" y="771.0" width="30.0" height="30.0"/>
    <rect x="33240.0" y="675.0" width="30.0" height="30.0"/>
    <rect x="33308.0" y="861.0" width="30.0" height="30.0"/>
    <rect x="33308.0" y="891.0" width="30.0" height="30.0"/>
    <rect x="33308.0" y="921.0" width="30.0" height="30.0"/>
    <rect x="33308.0" y="951.0" width="30.0" height="30.0"/>
    <rect x="33522.0" y="735.0" width="30.0" height="30.0"/>
    <rect x="33522.0" y="705.0" width="30.0" height="30.0"/>
    <rect x="33522.0" y="765.0" width="30.0" height="30.0"/>
    <rect x="33492.0" y="735.0" width="30.0" height="30.0"/>
    <rect x="33492.0" y="705.0" width="30.0" height="30.0"/>
    <rect x="33522.0" y="675.0" width="30.0" height="30.0"/>
    <rect x="33492.0" y="675.0" width="30.0" height="30.0"/>
    <rect x="33552.0" y="735.0" width="30.0" height="30.0"/>
    <rect x="33552.0" y="705.0" width="30.0" height="30.0"/>
    <rect x="33552.0" y="765.0" width="30.0" height="30.0"/>
    <rect x="33552.0" y="675.0" width="30.0" height="30.0"/>
    <rect x="33582.0" y="735.0" width="30.0" height="30.0"/>
    <rect x="33582.0" y="705.0" width="30.0" height="30.0"/>
    <rect x="33582.0" y="675.0" width="30.0" height="30.0"/>
    <rect x="33522.0" y="885.0" width="30.0" height="30.0"/>
    <rect x="33522.0" y="915.0" width="30.0" height="30.0"/>
    <rect x="33522.0" y="855.0" width="30.0" height="30.0"/>
    <rect x="33522.0" y="945.0" width="30.0" height="30.0"/>
    <rect x="33552.0" y="885.0" width="30.0" height="30.0"/>
    <rect x="33552.0" y="915.0" width="30.0" height="30.0"/>
    <rect x="33552.0" y="855.0" width="30.0" height="30.0"/>
    <rect x="33552.0" y="945.0" width="30.0" height="30.0"/>
    <rect x="33582.0" y="885.0" width="30.0" height="30.0"/>
    <rect x="33582.0" y="915.0" width="30.0" height="30.0"/>
    <rect x="33582.0" y="945.0" width="30.0" height="30.0"/>
    <rect x="33492.0" y="885.0" width="30.0" height="30.0"/>
    <rect x="33492.0" y="915.0" width="30.0" height="30.0"/>
    <rect x="33492.0" y="945.0" width="30.0" height="30.0"/>
    <rect x="33534.0" y="811.0" width="30.0" height="30.0"/>
    <rect x="33750.0" y="915.0" width="30.0" height="30.0"/>
    <rect x="33750.0" y="945.0" width="30.0" height="30.0"/>
    <rect x="33750.0" y="885.0" width="30.0" height="30.0"/>
    <rect x="33720.0" y="915.0" width="30.0" height="30.0"/>
    <rect x="33720.0" y="945.0" width="30.0" height="30.0"/>
    <rect x="33720.0" y="765.0" width="30.0" height="30.0"/>
    <rect x="33780.0" y="765.0" width="30.0" height="30.0"/>
    <rect x="33750.0" y="765.0" width="30.0" height="30.0"/>
    <rect x="33720.0" y="735.0" width="30.0" height="30.0"/>
    <rect x="33720.0" y="705.0" width="30.0" height="30.0"/>
    <rect x="33720.0" y="675.0" width="30.0" height="30.0"/>
    <rect x="33780.0" y="705.0" width="30.0" height="30.0"/>
    <rect x="33780.0" y="735.0" width="30.0" height="30.0"/>
    <rect x="33750.0" y="735.0" width="30.0" height="30.0"/>
    <rect x="33750.0" y="675.0" width="30.0" height="30.0"/>
    <rect x="33750.0" y="705.0" width="30.0" height="30.0"/>
    <rect x="33780.0" y="675.0" width="30.0" height="30.0"/>
    <rect x="33750.0" y="795.0" width="30.0" height="30.0"/>
    <rect x="33780.0" y="795.0" width="30.0" height="30.0"/>
    <rect x="33780.0" y="915.0" width="30.0" height="30.0"/>
    <rect x="33780.0" y="945.0" width="30.0" height="30.0"/>
    <rect x="33780.0" y="885.0" width="30.0" height="30.0"/>
    <rect x="33750.0" y="837.0" width="30.0" height="30.0"/>
    <rect x="33810.0" y="765.0" width="30.0" height="30.0"/>
    <rect x="33810.0" y="735.0" width="30.0" height="30.0"/>
    <rect x="33810.0" y="705.0" width="30.0" height="30.0"/>
    <rect x="33810.0" y="915.0" width="30.0" height="30.0"/>
    <rect x="33810.0" y="945.0" width="30.0" height="30.0"/>
    <rect x="33810.0" y="675.0" width="30.0" height="30.0"/>
    <rect x="34680.0" y="927.5" width="30.0" height="30.0"/>
    <rect x="34628.0" y="817.0" width="30.0" height="30.0"/>
    <rect x="34586.0" y="817.0" width="30.0" height="30.0"/>
    <rect x="34628.0" y="817.0" width="30.0" height="30.0"/>
    <rect x="35100.0" y="855.0" width="30.0" height="30.0"/>
    <rect x="35250.0" y="765.0" width="30.0" height="30.0"/>
    <rect x="35490.0" y="855.0" width="30.0" height="30.0"/>
    <rect x="36000.0" y="825.0" width="30.0" height="30.0"/>
    <rect x="36000.0" y="825.0" width="30.0" height="30.0"/>
    <rect x="36090.0" y="662.5" width="30.0" height="30.0"/>
    <rect x="37260.0" y="609.0" width="30.0" height="30.0"/>
    <rect x="37290.0" y="609.0" width="30.0" height="30.0"/>
    <rect x="37366.0" y="717.0" width="30.0" height="30.0"/>
    <rect x="37684.0" y="699.0" width="30.0" height="30.0"/>
    <rect x="38758.9" y="727.3" width="30.0" height="30.0"/>
  </g>
  <g fill="#ff5555" opacity="0.9">
    <polygon points="975.0,885.0 960.0,915.0 990.0,915.0"/>
    <polygon points="1155.0,585.0 1140.0,615.0 1170.0,615.0"/>
    <polygon points="3375.0,885.0 3360.0,915.0 3390.0,915.0"/>
    <polygon points="3855.0,782.0 3840.0,812.0 3870.0,812.0"/>
    <polygon points="4335.0,516.0 4320.0,546.0 4350.0,546.0"/>
    <polygon points="4425.0,516.0 4410.0,546.0 4440.0,546.0"/>
    <polygon points="4485.0,654.0 4470.0,684.0 4500.0,684.0"/>
    <polygon points="4724.4,646.3 4709.4,676.3 4739.4,676.3"/>
    <polygon points="4815.0,546.0 4800.0,576.0 4830.0,576.0"/>
    <polygon points="4905.0,624.0 4890.0,654.0 4920.0,654.0"/>
    <polygon points="4995.0,516.0 4980.0,546.0 5010.0,546.0"/>
    <polygon points="5085.0,516.0 5070.0,546.0 5100.0,546.0"/>
    <polygon points="5295.0,564.0 5280.0,594.0 5310.0,594.0"/>
    <polygon points="5205.0,564.0 5190.0,594.0 5220.0,594.0"/>
    <polygon points="5625.0,606.0 5610.0,636.0 5640.0,636.0"/>
    <polygon points="6045.0,564.0 6030.0,594.0 6060.0,594.0"/>
    <polygon points="6225.0,516.0 6210.0,546.0 6240.0,546.0"/>
    <polygon points="16785.0,576.0 16770.0,606.0 16800.0,606.0"/>
    <polygon points="17055.0,744.0 17040.0,774.0 17070.0,774.0"/>
    <polygon points="17115.0,744.0 17100.0,774.0 17130.0,774.0"/>
    <polygon points="17235.0,714.0 17220.0,744.0 17250.0,744.0"/>
    <polygon points="17505.0,636.0 17490.0,666.0 17520.0,666.0"/>
    <polygon points="17655.0,710.0 17640.0,740.0 17670.0,740.0"/>
    <polygon points="17685.0,710.0 17670.0,740.0 17700.0,740.0"/>
    <polygon points="17685.0,642.0 17670.0,672.0 17700.0,672.0"/>
    <polygon points="17655.0,642.0 17640.0,672.0 17670.0,672.0"/>
    <polygon points="18495.0,705.0 18480.0,735.0 18510.0,735.0"/>
    <polygon points="18795.0,636.0 18780.0,666.0 18810.0,666.0"/>
    <polygon points="18795.0,684.0 18780.0,714.0 18810.0,714.0"/>
    <polygon points="18825.0,684.0 18810.0,714.0 18840.0,714.0"/>
    <polygon points="18855.0,684.0 18840.0,714.0 18870.0,714.0"/>
    <polygon points="18855.0,636.0 18840.0,666.0 18870.0,666.0"/>
    <polygon points="18825.0,636.0 18810.0,666.0 18840.0,666.0"/>
    <polygon points="18915.0,636.5 18900.0,666.5 18930.0,666.5"/>
    <polygon points="18945.0,684.0 18930.0,714.0 18960.0,714.0"/>
    <polygon points="18945.0,636.5 18930.0,666.5 18960.0,666.5"/>
    <polygon points="18975.0,684.0 18960.0,714.0 18990.0,714.0"/>
    <polygon points="18975.0,636.0 18960.0,666.0 18990.0,666.0"/>
    <polygon points="18915.0,684.0 18900.0,714.0 18930.0,714.0"/>
    <polygon points="19035.0,684.0 19020.0,714.0 19050.0,714.0"/>
    <polygon points="19065.0,684.0 19050.0,714.0 19080.0,714.0"/>
    <polygon points="19095.0,636.0 19080.0,666.0 19110.0,666.0"/>
    <polygon points="19095.0,684.0 19080.0,714.0 19110.0,714.0"/>
    <polygon points="19065.0,636.5 19050.0,666.5 19080.0,666.5"/>
    <polygon points="19035.0,636.5 19020.0,666.5 19050.0,666.5"/>
    <polygon points="19275.0,702.0 19260.0,732.0 19290.0,732.0"/>
    <polygon points="19275.0,634.0 19260.0,664.0 19290.0,664.0"/>
    <polygon points="19305.0,702.0 19290.0,732.0 19320.0,732.0"/>
    <polygon points="19305.0,634.0 19290.0,664.0 19320.0,664.0"/>
    <polygon points="19575.0,732.0 19560.0,762.0 19590.0,762.0"/>
    <polygon points="19575.0,664.0 19560.0,694.0 19590.0,694.0"/>
    <polygon points="19544.9,729.2 19529.9,759.2 19559.9,759.2"/>
    <polygon points="19605.0,732.0 19590.0,762.0 19620.0,762.0"/>
    <polygon points="19605.0,664.0 19590.0,694.0 19620.0,694.0"/>
    <polygon points="19635.0,666.0 19620.0,696.0 19650.0,696.0"/>
    <polygon points="19845.0,762.0 19830.0,792.0 19860.0,792.0"/>
    <polygon points="19845.0,694.0 19830.0,724.0 19860.0,724.0"/>
    <polygon points="19875.0,762.0 19860.0,792.0 19890.0,792.0"/>
    <polygon points="19875.0,694.0 19860.0,724.0 19890.0,724.0"/>
    <polygon points="19815.0,760.0 19800.0,790.0 19830.0,790.0"/>
    <polygon points="19905.0,696.0 19890.0,726.0 19920.0,726.0"/>
    <polygon points="20145.0,664.0 20130.0,694.0 20160.0,694.0"/>
    <polygon points="20175.0,664.0 20160.0,694.0 20190.0,694.0"/>
    <polygon points="20115.0,730.0 20100.0,760.0 20130.0,760.0"/>
    <polygon points="20145.0,732.0 20130.0,762.0 20160.0,762.0"/>
    <polygon points="20175.0,732.0 20160.0,762.0 20190.0,762.0"/>
    <polygon points="20205.0,667.0 20190.0,697.0 20220.0,697.0"/>
    <polygon points="20355.0,604.0 20340.0,634.0 20370.0,634.0"/>
    <polygon points="20385.0,604.0 20370.0,634.0 20400.0,634.0"/>
    <polygon points="20325.0,670.0 20310.0,700.0 20340.0,700.0"/>
    <polygon points="20355.0,672.0 20340.0,702.0 20370.0,702.0"/>
    <polygon points="20385.0,672.0 20370.0,702.0 20400.0,702.0"/>
    <polygon points="20415.0,670.0 20400.0,700.0 20430.0,700.0"/>
    <polygon points="20685.0,765.0 20670.0,795.0 20700.0,795.0"/>
    <polygon points="24793.8,618.3 24778.8,648.3 24808.8,648.3"/>
    <polygon points="25045.0,717.0 25030.0,747.0 25060.0,747.0"/>
    <polygon points="25355.0,735.0 25340.0,765.0 25370.0,765.0"/>
    <polygon points="26085.0,735.0 26070.0,765.0 26100.0,765.0"/>
    <polygon points="28995.0,705.0 28980.0,735.0 29010.0,735.0"/>
    <polygon points="29085.0,765.0 29070.0,795.0 29100.0,795.0"/>
    <polygon points="29205.0,765.0 29190.0,795.0 29220.0,795.0"/>
    <polygon points="29679.0,885.0 29664.0,915.0 29694.0,915.0"/>
    <polygon points="31065.0,799.0 31050.0,829.0 31080.0,829.0"/>
    <polygon points="31935.0,781.0 31920.0,811.0 31950.0,811.0"/>
    <polygon points="33679.0,773.0 33664.0,803.0 33694.0,803.0"/>
    <polygon points="34995.0,765.0 34980.0,795.0 35010.0,795.0"/>
    <polygon points="35409.0,765.0 35394.0,795.0 35424.0,795.0"/>
    <polygon points="36165.0,885.0 36150.0,915.0 36180.0,915.0"/>
  </g>
</svg>
